<svg width="146" height="93" viewBox="0 0 146 93" fill="none" xmlns="http://www.w3.org/2000/svg">
<path d="M0.84 91L11.72 1.39999H34.76L45.64 91H27.72L26.568 74.488H19.784L18.888 91H0.84ZM20.808 55.288H25.672L24.392 27H22.216L20.808 55.288ZM71.255 92.28C67.159 92.28 63.4043 91.2987 59.991 89.336C56.5777 87.288 53.847 84.6 51.799 81.272C49.8363 77.8587 48.855 74.0613 48.855 69.88V22.52C48.855 18.3387 49.8363 14.584 51.799 11.256C53.847 7.84266 56.5777 5.15466 59.991 3.19199C63.4043 1.14399 67.159 0.119995 71.255 0.119995C75.4363 0.119995 79.191 1.14399 82.519 3.19199C85.9323 5.15466 88.6203 7.84266 90.583 11.256C92.631 14.584 93.655 18.3387 93.655 22.52V36.6H74.711V21.368C74.711 20.4293 74.3697 19.6613 73.687 19.064C73.0043 18.3813 72.1937 18.04 71.255 18.04C70.4017 18.04 69.6337 18.3813 68.951 19.064C68.2683 19.6613 67.927 20.4293 67.927 21.368V71.16C67.927 72.0133 68.2683 72.7813 68.951 73.464C69.6337 74.1467 70.4017 74.488 71.255 74.488C72.1937 74.488 73.0043 74.1467 73.687 73.464C74.3697 72.7813 74.711 72.0133 74.711 71.16V55.8H93.655V69.88C93.655 74.0613 92.631 77.8587 90.583 81.272C88.6203 84.6 85.9323 87.288 82.519 89.336C79.191 91.2987 75.4363 92.28 71.255 92.28ZM100.715 91V1.39999H119.787V36.6H126.571V1.39999H145.515V91H126.571V55.8H119.787V91H100.715Z" fill="white"/>
</svg>
